<svg class="img-fluid" id="outputsvg" xmlns="http://www.w3.org/2000/svg" style="transform: matrix(1, 0, 0, 1, 0, 0); transform-origin: 50% 50%; cursor: move; max-height: none; transition: none;" width="902" height="1068" viewBox="0 0 9020 10680"><g id="l7mJPzYl614Oz3huqzc50CY" fill="none" stroke="rgb(30,30,30)" stroke-width="10" style="transform: none;"><g style="transform: none;"><path id="p81sLPNKd" d="M0 5340 l0 -5340 4510 0 4510 0 0 5340 0 5340 -4510 0 -4510 0 0 -5340z m8172 4561 c115 -19 254 -136 317 -267 27 -57 34 -85 39 -155 8 -147 6 -150 -360 -509 -172 -168 -449 -441 -616 -607 l-304 -302 -36 47 c-19 26 -49 65 -66 87 -41 53 -180 210 -231 260 -23 22 -83 76 -134 120 l-93 80 398 390 c220 214 491 481 604 591 202 199 249 236 335 260 51 15 77 16 147 5z m-3907 -1221 c273 -33 332 -41 440 -65 107 -23 245 -60 315 -85 112 -39 291 -105 315 -115 259 -116 530 -277 742 -441 123 -96 113 -100 315 107 l168 171 52 -44 c29 -23 104 -94 166 -156 l113 -113 -160 -157 c-159 -156 -161 -158 -161 -201 0 -38 6 -51 43 -91 106 -119 227 -286 352 -485 60 -97 216 -396 230 -443 l6 -22 -192 2 -193 3 -13 25 c-7 14 -35 71 -62 127 -77 156 -249 411 -385 568 -339 392 -774 704 -1251 896 -168 67 -210 80 -485 143 -176 41 -421 59 -700 53 -370 -8 -612 -49 -965 -164 -208 -68 -425 -167 -585 -268 -464 -293 -730 -541 -1002 -936 -277 -402 -456 -929 -508 -1494 -13 -143 -13 -517 0 -625 69 -559 215 -962 513 -1405 147 -220 416 -513 590 -645 l57 -42 0 -184 0 -184 -27 17 c-51 31 -227 166 -303 231 -92 79 -325 314 -388 392 -82 101 -239 320 -278 389 -11 20 -46 77 -76 126 -130 211 -232 461 -327 795 -42 150 -72 328 -91 540 -19 201 -9 726 15 792 2 7 9 47 15 88 24 182 70 372 137 570 199 588 486 1021 962 1457 530 485 1253 801 2001 873 114 11 515 11 605 0z m-99 -764 c56 -3 130 -10 165 -15 35 -6 91 -15 124 -21 84 -13 227 -46 310 -71 119 -35 275 -91 275 -99 0 -4 -8 -18 -19 -31 -36 -47 -73 -133 -97 -227 -19 -76 -24 -120 -24 -226 0 -223 41 -336 165 -462 135 -137 321 -196 680 -219 247 -15 455 -51 534 -91 l24 -13 -24 -5 c-45 -10 -393 -27 -659 -32 -151 -3 -277 -10 -293 -16 -42 -16 -67 -58 -67 -115 0 -98 65 -146 254 -188 67 -15 114 -17 340 -12 172 4 317 13 426 26 438 55 720 65 891 30 190 -38 297 -84 434 -187 106 -79 182 -172 235 -287 68 -144 72 -125 -38 -173 -119 -52 -216 -132 -285 -234 -71 -108 -90 -164 -95 -290 -4 -104 -4 -107 28 -167 18 -34 51 -77 72 -97 22 -20 38 -37 36 -38 -4 -3 -159 -43 -253 -65 -38 -10 -86 -25 -105 -34 -19 -9 -109 -44 -200 -78 -91 -34 -205 -77 -255 -96 -49 -19 -117 -45 -151 -58 -143 -53 -358 -169 -418 -224 -61 -56 -103 -147 -131 -281 -34 -164 -75 -244 -208 -405 -64 -77 -210 -212 -310 -286 -247 -184 -608 -322 -987 -379 -41 -6 -93 -15 -115 -20 -22 -5 -147 -14 -277 -21 -197 -11 -238 -16 -244 -28 -3 -9 -17 -54 -30 -101 -93 -329 -129 -448 -191 -625 -83 -239 -180 -470 -288 -681 -106 -210 -113 -222 -217 -384 -36 -55 -128 -150 -147 -150 -45 0 -288 452 -415 772 -121 306 -185 527 -222 776 -68 453 -1 920 183 1286 62 122 170 259 243 306 46 29 50 35 50 71 0 33 -4 41 -31 55 -49 25 -146 99 -175 133 -40 48 -78 43 -167 -23 -39 -30 -97 -80 -129 -113 -61 -63 -152 -196 -162 -239 l-7 -27 -25 24 c-43 40 -166 206 -256 344 -294 452 -481 931 -573 1468 l-6 38 120 -98 c156 -128 308 -223 356 -223 32 0 35 2 35 30 0 17 -11 52 -24 78 -38 76 -152 431 -171 532 -3 19 -13 64 -22 100 -8 36 -25 121 -37 190 l-21 125 58 113 c202 395 471 702 862 984 130 93 385 231 550 295 142 56 439 135 600 159 124 18 307 32 375 27 25 -1 91 -5 146 -7z m4144 -2899 c0 -13 -7 -32 -16 -43 -15 -18 -15 -18 -5 3 6 12 11 31 11 42 0 12 2 21 5 21 3 0 5 -10 5 -23z m-1178 -1048 c-94 -249 -228 -503 -367 -698 -145 -203 -379 -461 -547 -603 -203 -172 -454 -339 -703 -466 -361 -185 -816 -308 -1265 -342 -80 -6 -158 -13 -174 -15 -24 -4 -27 -2 -20 13 12 29 71 204 83 248 l11 42 138 16 c199 24 544 93 623 125 13 5 48 17 78 26 138 42 385 148 486 208 270 160 365 229 580 418 288 253 547 595 674 889 23 52 47 106 54 119 10 20 39 32 181 73 93 27 176 53 185 58 9 5 17 5 19 1 2 -5 -15 -55 -36 -112z m-1524 -2401 c5 -268 4 -284 -34 -518 -31 -188 -92 -322 -140 -306 -12 4 -45 48 -79 109 -193 336 -321 529 -483 730 -30 37 -53 69 -51 71 2 1 48 10 101 20 54 9 148 30 210 47 62 17 145 39 183 50 39 10 115 36 170 57 85 32 101 36 109 23 5 -8 11 -135 14 -283z"></path><path id="pMMOELVHi" d="M5315 4424 c-42 -12 -108 -35 -129 -46 -101 -54 -193 -163 -217 -258 l-12 -49 -51 -6 c-104 -12 -182 -26 -233 -43 -51 -16 -53 -17 -53 -53 0 -35 4 -40 69 -83 110 -73 348 -185 422 -198 35 -6 125 -11 199 -11 116 0 143 3 190 22 113 46 244 183 290 301 7 19 19 49 26 65 35 80 77 204 81 243 5 41 5 42 -26 42 -18 0 -48 -7 -68 -15 -50 -21 -77 -19 -110 9 -65 53 -136 76 -258 81 -55 2 -109 2 -120 -1z m208 -358 c25 -20 21 -44 -12 -60 -26 -14 -30 -14 -46 4 -13 14 -14 23 -6 38 9 18 25 29 41 31 3 0 13 -6 23 -13z"></path><path id="p2WUUMNTf" d="M2946 3602 c-79 -85 -173 -243 -204 -342 -44 -138 -54 -179 -73 -295 -30 -181 -30 -478 0 -690 38 -270 128 -570 249 -831 l69 -149 40 -3 40 -3 50 138 c75 207 82 229 118 348 68 227 147 541 165 655 6 41 16 93 21 115 6 22 13 110 16 196 6 164 -4 238 -45 354 -14 38 -23 51 -41 53 -53 8 -91 -9 -155 -68 l-64 -60 -4 122 c-3 78 -17 192 -38 311 l-34 187 -38 0 c-30 0 -44 -7 -72 -38z"></path></g></g><g id="l7PkcBLjUMTYbYpB6Lg7l4t" fill="rgb(235,155,50)" style="transform: none;"><g style="transform: none;"><path id="pIesguscX" d="M8110 9910 c0 -28 2 -30 39 -30 31 0 40 -4 44 -21 7 -25 -46 -94 -104 -137 -20 -15 -83 -76 -140 -137 -123 -130 -549 -556 -705 -704 -60 -58 -113 -112 -119 -121 -5 -10 -69 -72 -142 -138 -87 -81 -139 -122 -154 -122 -19 0 -14 -9 37 -57 77 -74 214 -229 284 -323 30 -40 64 -84 75 -97 l20 -24 321 318 c176 175 460 455 632 623 375 368 367 356 360 539 -4 106 -8 122 -38 185 -64 131 -203 248 -318 267 -88 14 -92 13 -92 -21z"></path><path id="peQMynVKb" d="M3630 8710 c-41 -4 -124 -15 -184 -24 -60 -9 -113 -16 -118 -16 -5 0 -8 -12 -6 -27 3 -26 7 -28 53 -31 73 -5 173 7 189 23 39 40 35 -47 -11 -233 -3 -12 -9 -25 -14 -28 -5 -3 -9 -21 -9 -41 l0 -35 73 7 c39 3 99 11 132 16 175 27 698 -3 872 -50 21 -6 76 -19 123 -30 335 -77 725 -264 1055 -504 165 -121 400 -339 541 -502 136 -157 308 -412 385 -568 27 -56 55 -113 62 -127 l13 -25 237 -3 c130 -1 237 1 237 6 0 4 -6 16 -14 27 -7 11 -17 31 -21 45 -14 48 -168 346 -230 445 -126 200 -247 367 -354 486 -41 46 -43 51 -31 74 8 14 85 94 172 178 87 83 158 157 158 162 0 27 -352 365 -380 365 -7 0 -93 -82 -190 -181 l-178 -182 -83 65 c-214 167 -484 327 -744 443 -24 10 -203 76 -315 115 -70 25 -208 62 -315 85 -108 24 -167 32 -440 65 -90 11 -551 11 -665 0z"></path><path id="p9ezCpbaO" d="M3113 8623 c-16 -3 -23 -11 -23 -29 0 -21 5 -24 35 -24 32 0 35 2 35 30 0 30 -3 32 -47 23z"></path><path id="pB7xRy4UC" d="M3018 8598 c-21 -6 -38 -15 -38 -20 0 -19 34 -37 68 -38 30 0 32 2 32 35 0 38 -3 39 -62 23z"></path><path id="p2PwzzT1J" d="M3243 8299 c-28 -8 -33 -14 -33 -39 0 -17 1 -30 3 -30 1 0 34 9 72 19 55 15 70 22 70 37 0 15 -8 19 -40 21 -22 1 -55 -3 -72 -8z"></path><path id="p3EMv33UI" d="M4075 7924 c-51 -34 -95 -75 -95 -89 0 -6 -39 -49 -86 -95 -47 -47 -96 -101 -109 -120 -13 -19 -45 -64 -70 -100 -126 -176 -216 -339 -307 -555 -54 -127 -83 -252 -100 -432 -6 -57 -14 -101 -17 -98 -4 2 -33 55 -64 117 -57 114 -58 118 -107 373 -5 28 -11 85 -14 127 -2 43 -7 82 -11 88 -3 5 -24 10 -46 10 -34 0 -42 -4 -57 -31 -9 -17 -48 -84 -86 -148 -212 -359 -280 -603 -293 -1050 -6 -209 4 -361 28 -454 6 -22 8 -41 6 -44 -3 -2 -38 24 -78 58 -41 34 -99 78 -129 97 -30 19 -74 52 -96 74 -34 33 -47 39 -75 36 -33 -3 -34 -5 -41 -53 -18 -138 -1 -502 31 -665 11 -52 22 -126 25 -165 11 -124 78 -334 161 -508 56 -115 57 -118 50 -179 -6 -52 -5 -61 6 -52 8 6 34 25 58 44 l44 34 30 -34 c34 -38 128 -109 176 -134 17 -9 31 -20 31 -25 0 -5 -23 -23 -50 -41 -45 -29 -122 -114 -186 -206 -58 -82 -144 -285 -189 -444 -81 -286 -101 -677 -51 -1002 25 -165 67 -338 125 -516 126 -383 413 -962 512 -1033 34 -24 49 -18 122 50 49 45 92 107 185 261 58 95 221 431 282 579 114 278 182 483 314 951 13 47 27 92 30 101 6 12 47 17 244 28 130 7 255 16 277 21 22 5 74 14 115 20 620 93 1095 364 1398 798 54 77 81 148 107 272 28 134 70 225 131 281 60 55 275 171 418 224 34 13 102 38 151 58 89 34 350 133 433 163 34 13 42 20 42 41 0 25 -1 26 -52 19 -119 -15 -291 -26 -428 -26 -126 0 -158 3 -240 26 -151 41 -204 73 -338 199 -41 39 -81 74 -91 79 -9 5 -20 15 -26 21 -19 23 -120 98 -150 112 -16 7 -50 25 -75 39 -90 52 -237 112 -335 137 -156 40 -374 79 -407 75 -24 -4 -32 -1 -36 14 -3 12 -14 18 -33 18 -16 0 -29 5 -29 10 0 6 -6 10 -13 10 -40 0 -227 89 -347 165 -165 104 -338 279 -423 426 l-26 46 77 11 c142 20 142 20 142 57 0 18 -4 35 -8 37 -16 6 -153 237 -186 314 -19 43 -47 121 -63 171 -15 51 -33 93 -39 93 -24 0 -39 443 -20 593 7 52 6 71 -4 77 -19 12 -3 70 19 70 14 0 24 21 44 88 15 49 27 108 27 130 0 53 48 162 71 162 18 0 49 65 49 103 0 32 11 44 48 52 23 5 32 12 30 23 -4 21 -46 30 -173 37 -96 5 -102 4 -140 -21z m1483 -3553 c30 -11 65 -28 79 -38 80 -58 107 -63 184 -33 48 19 51 19 44 3 -5 -10 -21 -54 -37 -98 -16 -44 -35 -93 -42 -110 -7 -16 -19 -46 -26 -65 -46 -118 -178 -256 -290 -300 -44 -18 -75 -22 -160 -22 -163 0 -215 12 -378 92 -138 67 -282 153 -282 169 0 18 178 58 284 64 l49 3 17 57 c40 129 147 237 281 281 24 8 53 17 64 20 37 10 160 -4 213 -23z m-2498 -948 c34 -191 51 -407 39 -494 -4 -24 -5 -45 -4 -47 1 -1 18 24 38 56 58 93 177 196 207 177 10 -6 45 -118 61 -195 13 -61 7 -269 -9 -340 -6 -25 -16 -79 -22 -120 -23 -151 -149 -627 -215 -815 -78 -222 -120 -325 -128 -322 -19 6 -147 297 -198 449 -108 324 -151 567 -151 858 0 132 5 207 21 305 19 116 29 157 73 295 18 57 85 188 128 248 46 64 107 132 118 132 4 0 23 -84 42 -187z"></path><path id="pwQiXiYuJ" d="M1240 6826 c0 -8 -7 -17 -15 -20 -21 -8 -65 -104 -65 -142 0 -31 25 -54 40 -37 9 10 110 201 110 208 0 3 -16 5 -35 5 -23 0 -35 -5 -35 -14z"></path><path id="pTdf1LGpr" d="M721 6539 c-16 -46 -14 -49 20 -49 29 0 30 2 27 37 -4 50 -31 57 -47 12z"></path><path id="p13DwRn68l" d="M1070 6475 c0 -31 3 -35 25 -35 24 0 45 25 45 54 0 12 -10 16 -35 16 -33 0 -35 -2 -35 -35z"></path><path id="p9af7Sv8A" d="M793 6404 c-18 -19 -33 -40 -33 -47 0 -7 -11 -28 -25 -47 l-25 -34 0 40 c0 51 -10 84 -24 84 -11 0 -48 -91 -71 -180 -10 -37 -10 -50 -2 -50 8 0 7 -4 -2 -9 -17 -11 -28 -111 -12 -111 6 0 11 -8 10 -17 0 -11 -3 -13 -6 -5 -8 20 -32 14 -38 -10 -8 -38 -27 -141 -32 -173 -2 -16 -11 -73 -19 -125 -35 -226 -35 -793 0 -988 2 -10 7 -44 11 -77 23 -199 108 -503 210 -750 68 -167 110 -250 183 -370 30 -49 65 -106 76 -126 39 -69 196 -288 278 -389 64 -79 297 -314 388 -391 145 -124 300 -238 369 -272 l34 -17 -7 53 c-3 28 -6 134 -6 233 l0 182 -57 42 c-120 92 -338 313 -474 485 -189 238 -375 575 -471 855 -167 487 -211 990 -131 1488 11 71 13 106 6 110 -7 5 -9 34 -6 80 5 66 8 72 28 72 20 0 24 10 44 99 18 80 83 284 116 364 6 14 2 17 -19 17 -19 0 -26 -5 -26 -20 0 -13 -7 -20 -20 -20 -15 0 -21 -9 -26 -40 -6 -40 -7 -40 -50 -40 -34 0 -42 3 -38 15 4 8 15 15 25 15 16 0 19 8 19 55 l0 55 -72 0 c-70 -1 -74 -2 -105 -36z m116 -391 c-1 -38 -1 -38 -9 -9 -8 27 -6 46 6 46 2 0 4 -17 3 -37z"></path><path id="p127iLzgTH" d="M7185 4130 c-25 -10 -187 -61 -320 -99 -112 -32 -100 -19 -166 -171 -127 -294 -386 -636 -674 -889 -215 -189 -310 -258 -580 -418 -101 -60 -348 -166 -486 -208 -30 -9 -65 -21 -78 -26 -79 -32 -424 -101 -623 -125 l-138 -16 -11 -42 c-15 -55 -62 -198 -88 -265 -11 -30 -19 -57 -16 -59 9 -10 425 30 570 54 519 85 904 236 1335 520 206 136 333 239 505 409 352 349 620 769 771 1212 20 59 39 114 41 121 6 14 -12 15 -42 2z"></path></g></g><g id="l5rTwuQJyNbJuQ5gMMVjZ29" fill="rgb(218,134,40)" style="transform: none;"><g style="transform: none;"><path id="pe5cEv4KT" d="M7995 9926 c-86 -24 -133 -61 -335 -260 -113 -110 -391 -383 -619 -606 l-413 -405 68 -63 c104 -96 184 -156 184 -138 0 8 60 70 133 137 72 67 137 129 142 139 6 9 59 63 119 121 114 108 546 539 723 720 56 57 138 139 182 182 45 42 81 84 81 92 0 8 -9 19 -20 25 -11 6 -20 17 -20 25 0 12 5 12 25 3 14 -6 28 -8 32 -4 34 34 -187 60 -282 32z"></path><path id="p09WOiHXL" d="M3738 8713 c12 -2 22 -9 22 -14 0 -15 73 -6 78 9 3 9 -13 12 -60 11 -34 -1 -53 -4 -40 -6z"></path><path id="pE38lOy7n" d="M4110 8711 c0 -13 46 -22 75 -15 42 10 28 24 -25 24 -27 0 -50 -4 -50 -9z"></path><path id="pc9N7ff27" d="M3588 8703 c12 -2 22 -9 22 -14 0 -15 43 -7 48 9 3 8 -10 12 -45 11 -26 -1 -38 -4 -25 -6z"></path><path id="p104ExDYNM" d="M4260 8701 c0 -15 16 -22 34 -15 25 9 19 24 -9 24 -14 0 -25 -4 -25 -9z"></path><path id="p16CUApAVp" d="M3520 8685 c0 -8 6 -15 13 -15 7 0 5 -4 -4 -10 -9 -5 -51 -12 -93 -15 -60 -3 -77 -1 -84 10 -7 13 -22 12 -115 -6 -82 -17 -107 -26 -107 -38 0 -13 -2 -13 -9 -2 -14 22 -71 5 -72 -22 0 -19 -1 -20 -11 -6 -11 15 -17 15 -82 -3 -349 -95 -783 -313 -1096 -548 -353 -266 -678 -626 -899 -998 -118 -199 -247 -482 -227 -502 8 -9 8 -11 -2 -8 -13 3 -31 -38 -64 -144 -12 -37 -12 -45 -1 -41 35 14 2 -97 -41 -134 -14 -13 -26 -31 -26 -42 0 -10 -6 -36 -14 -58 -21 -61 -28 -126 -13 -135 9 -6 8 -11 -4 -21 -18 -14 -29 -53 -33 -112 -2 -22 -1 -26 1 -10 6 44 23 56 23 17 0 -18 4 -32 8 -32 17 0 44 82 39 116 -3 19 -2 34 3 34 18 0 40 58 34 89 -4 17 -10 31 -15 31 -5 0 -9 10 -9 23 0 15 10 26 32 36 44 20 98 76 98 102 0 11 9 32 20 46 11 14 20 32 20 39 0 8 16 30 35 50 19 19 35 31 35 25 0 -6 7 -11 15 -11 8 0 15 5 15 10 0 6 11 10 25 10 20 0 25 -5 25 -25 0 -16 -6 -25 -16 -25 -20 0 -44 -24 -44 -43 0 -34 13 -47 45 -47 18 0 35 -4 37 -10 3 -11 75 5 96 22 17 15 15 28 -5 29 -13 0 -11 3 7 11 24 10 24 10 5 18 -19 8 -19 9 3 9 14 1 22 7 22 19 0 10 4 22 8 28 5 5 32 65 62 132 37 87 49 126 41 131 -18 11 39 115 65 119 12 2 27 15 33 29 20 44 183 275 260 368 247 299 453 475 841 720 207 131 470 241 773 325 56 16 93 29 82 30 -19 1 -19 1 -2 11 12 7 22 7 30 0 8 -6 18 -6 27 -1 13 8 13 10 1 10 -8 0 -11 3 -8 6 4 4 12 2 19 -4 9 -7 43 -5 117 9 57 10 139 22 182 25 44 4 79 10 79 13 0 4 -30 4 -67 0 -38 -4 -70 -5 -72 -3 -2 2 0 14 6 27 36 74 55 179 51 267 -3 63 -4 65 -30 68 -16 2 -28 8 -28 13 0 5 -9 9 -20 9 -11 0 -20 -7 -20 -15z m-2811 -2442 c0 -5 -4 -17 -9 -28 -8 -18 -9 -17 -9 8 -1 15 4 27 9 27 6 0 10 -3 9 -7z"></path><path id="p4wEhH5b0" d="M4360 8690 c0 -5 7 -10 15 -10 8 0 15 5 15 10 0 6 -7 10 -15 10 -8 0 -15 -4 -15 -10z"></path><path id="pvY9qnTNv" d="M3382 8666 c13 -14 28 -12 28 5 0 5 -9 9 -20 9 -17 0 -19 -2 -8 -14z"></path><path id="pcnVmrZ6o" d="M4630 8652 c0 -11 7 -13 30 -8 17 3 30 1 30 -4 0 -12 27 -13 34 -1 3 5 -17 13 -44 18 -42 9 -50 8 -50 -5z"></path><path id="p1eXrhAxg" d="M4740 8630 c0 -5 7 -10 15 -10 8 0 15 5 15 10 0 6 -7 10 -15 10 -8 0 -15 -4 -15 -10z"></path><path id="pa7GajbzV" d="M4790 8620 c0 -5 7 -10 15 -10 8 0 15 5 15 10 0 6 -7 10 -15 10 -8 0 -15 -4 -15 -10z"></path><path id="pNsCs8DhA" d="M5000 8560 c0 -5 7 -10 15 -10 8 0 15 5 15 10 0 6 -7 10 -15 10 -8 0 -15 -4 -15 -10z"></path><path id="p1CPnJaQwu" d="M5546 8341 c-7 -11 52 -36 62 -27 8 9 -26 36 -44 36 -7 0 -15 -4 -18 -9z"></path><path id="pxnvh9x18" d="M3835 7950 c-258 -19 -595 -94 -820 -183 -607 -239 -1118 -703 -1416 -1286 l-62 -120 22 -133 c12 -73 31 -169 41 -213 10 -44 22 -96 25 -115 19 -103 133 -457 172 -534 13 -26 20 -47 15 -45 -6 2 -54 31 -107 64 -81 50 -203 144 -372 288 l-33 28 0 -33 c1 -69 47 -311 95 -493 99 -377 273 -763 500 -1110 125 -191 287 -395 313 -395 5 0 15 21 22 47 28 97 190 301 293 368 16 10 25 21 20 24 -4 3 -8 26 -8 51 -1 34 -15 74 -58 165 -85 176 -152 385 -163 510 -3 39 -14 111 -24 160 -35 170 -51 613 -24 657 4 5 25 -8 48 -30 22 -22 66 -55 96 -74 30 -19 84 -60 120 -90 66 -56 171 -130 177 -124 2 1 -8 47 -21 102 -39 162 -50 282 -43 486 15 421 86 669 293 1019 38 64 77 131 87 149 32 60 54 22 56 -99 0 -35 5 -80 11 -100 5 -20 17 -79 26 -131 9 -52 28 -122 41 -154 31 -76 134 -266 144 -266 4 0 10 8 13 17 9 22 27 144 31 203 6 107 45 260 93 375 91 216 181 379 307 555 25 36 57 81 70 100 13 19 62 73 109 120 47 46 86 89 86 95 0 26 116 110 160 117 13 1 25 9 28 16 3 9 -13 12 -60 12 -34 0 -92 2 -128 4 -36 2 -114 1 -175 -4z"></path><path id="pkYqJBrpu" d="M4270 7930 c0 -5 6 -10 14 -10 8 0 18 5 21 10 3 6 -3 10 -14 10 -12 0 -21 -4 -21 -10z"></path><path id="p12hulqtzU" d="M4334 7918 c-3 -4 -13 -8 -23 -8 -18 0 -57 -66 -42 -72 5 -2 2 -20 -6 -40 -9 -23 -20 -35 -28 -32 -14 6 -45 -51 -83 -153 -17 -45 -18 -53 -5 -53 9 0 13 -6 9 -15 -3 -10 1 -15 14 -15 21 0 50 56 96 190 16 46 41 96 57 113 15 16 27 35 27 43 0 8 7 14 15 14 8 0 15 9 15 19 0 14 -6 19 -21 18 -11 -1 -23 -5 -25 -9z"></path><path id="p1FasTCnB" d="M4113 7401 c-3 -12 -11 -17 -19 -14 -16 6 -29 -23 -37 -89 -5 -39 -4 -48 8 -48 8 0 15 -7 15 -15 0 -24 27 -18 34 8 10 37 20 177 12 177 -5 0 -10 -9 -13 -19z"></path><path id="phGK8e1Gl" d="M4080 6665 c0 -14 -4 -25 -10 -25 -12 0 -13 -40 -1 -59 5 -8 16 -11 25 -8 11 5 16 1 16 -13 0 -11 5 -20 10 -20 11 0 13 71 4 119 -8 40 -44 45 -44 6z"></path><path id="phPZhYETs" d="M912 6224 c-15 -17 -7 -54 13 -54 7 0 15 -6 18 -12 7 -21 24 3 31 45 7 36 6 37 -21 37 -15 -1 -34 -7 -41 -16z"></path><path id="paNfkgIPL" d="M1004 6176 c-10 -8 -15 -18 -11 -22 4 -4 15 0 24 9 22 21 12 31 -13 13z"></path><path id="pqnq4vZQo" d="M868 6069 c-14 -28 -14 -38 4 -106 15 -61 17 -85 9 -122 -17 -79 -21 -135 -11 -151 7 -11 10 -12 10 -2 0 10 4 10 16 -2 21 -22 24 -20 24 14 0 20 -5 30 -15 30 -8 0 -15 8 -15 18 0 14 2 15 10 2 15 -24 26 -2 45 90 9 47 20 95 22 108 4 16 1 22 -11 22 -15 0 -16 7 -11 43 5 34 3 47 -13 65 -27 30 -47 28 -64 -9z"></path><path id="phWWJffcq" d="M4354 6038 c21 -30 21 -31 -14 -51 -44 -26 -37 -37 25 -37 54 0 55 0 55 30 0 50 -19 80 -52 80 -28 0 -29 -1 -14 -22z"></path><path id="p19N37LtcR" d="M950 5995 c0 -8 7 -15 15 -15 8 0 15 7 15 15 0 8 -7 15 -15 15 -8 0 -15 -7 -15 -15z"></path><path id="pb5wtcXUo" d="M515 5725 c-3 -31 -5 -59 -2 -61 3 -3 8 20 12 51 3 31 5 59 2 61 -3 3 -8 -20 -12 -51z"></path><path id="p1gWC3MEo" d="M880 5636 c0 -8 7 -16 15 -20 10 -4 15 1 15 14 0 11 -7 20 -15 20 -8 0 -15 -6 -15 -14z"></path><path id="pqa3LvbGf" d="M870 5551 c0 -5 7 -11 15 -15 9 -3 15 0 15 9 0 8 -7 15 -15 15 -8 0 -15 -4 -15 -9z"></path><path id="pwHggZLVs" d="M860 5464 c0 -9 5 -14 12 -12 18 6 21 28 4 28 -9 0 -16 -7 -16 -16z"></path><path id="pJqidbQ7b" d="M4825 5314 c17 -13 18 -16 5 -24 -12 -8 -11 -10 8 -10 12 0 22 4 22 10 0 5 7 7 15 4 10 -4 15 0 15 15 0 18 -6 21 -42 21 -41 -1 -42 -2 -23 -16z"></path><path id="p18aMFnpc8" d="M850 5260 c0 -20 5 -30 15 -30 10 0 15 10 15 30 0 20 -5 30 -15 30 -10 0 -15 -10 -15 -30z"></path><path id="pgQdCO8q9" d="M4924 5276 c10 -8 15 -19 11 -25 -3 -6 -1 -11 4 -11 6 0 11 5 11 10 0 6 7 10 16 10 10 0 14 -5 10 -15 -5 -13 0 -15 31 -9 30 6 35 4 30 -8 -3 -10 3 -19 19 -27 31 -14 64 -14 64 -1 0 6 7 10 15 10 16 0 21 25 6 34 -5 4 -31 9 -58 13 -26 3 -50 10 -53 14 -3 5 -33 11 -65 14 -54 6 -58 5 -41 -9z"></path><path id="pAZRPiS38" d="M850 5140 c0 -20 5 -30 15 -30 10 0 15 10 15 30 0 20 -5 30 -15 30 -10 0 -15 -10 -15 -30z"></path><path id="phiDp43Rg" d="M5409 5154 c29 -8 56 -12 59 -9 10 10 -6 16 -59 20 l-54 5 54 -16z"></path><path id="pcXRXwPr" d="M5770 5032 c0 -5 11 -15 25 -22 14 -8 23 -20 21 -27 -3 -7 1 -13 9 -13 8 0 15 5 15 11 0 8 5 8 15 -1 13 -11 15 -8 15 13 0 16 -8 31 -19 37 -23 12 -81 13 -81 2z"></path><path id="plerVRRAS" d="M6012 4876 c27 -24 34 -36 26 -44 -8 -8 -2 -11 21 -10 26 1 31 5 31 25 0 16 -6 23 -20 23 -13 0 -20 7 -20 20 0 17 -7 20 -37 20 l-38 -1 37 -33z"></path><path id="pEb7X7uLx" d="M6220 4690 c19 -16 39 -30 44 -30 5 0 2 -7 -5 -16 -11 -14 -10 -16 6 -13 11 2 26 0 33 -4 8 -6 12 0 12 22 0 26 -4 31 -25 31 -18 0 -25 5 -25 20 0 16 -7 20 -37 20 l-38 0 35 -30z"></path><path id="plSQRhmXJ" d="M7173 4573 c-26 -5 -31 -33 -7 -33 11 0 15 -6 11 -20 -4 -16 -2 -18 11 -12 10 5 36 17 59 28 58 26 56 44 -4 43 -27 -1 -58 -4 -70 -6z"></path><path id="pAmKL7fNc" d="M933 4504 c18 -6 24 -24 7 -24 -5 0 -10 -4 -10 -10 0 -5 7 -10 16 -10 24 0 14 44 -11 47 -16 1 -16 1 -2 -3z"></path><path id="ppLJtVPml" d="M675 4053 c9 -21 20 -39 25 -41 5 -2 6 -11 3 -20 -4 -13 -2 -12 10 3 17 22 11 49 -9 41 -7 -3 -17 7 -23 25 -5 16 -13 29 -16 29 -3 0 2 -17 10 -37z"></path><path id="pbj2Dd9ti" d="M5560 1901 c-47 -24 -199 -80 -280 -102 -36 -10 -115 -31 -176 -47 -60 -17 -153 -38 -205 -47 -52 -9 -109 -21 -127 -27 l-32 -10 51 -56 c140 -153 337 -444 528 -780 56 -98 94 -142 123 -142 9 0 35 17 56 38 46 44 82 144 106 297 9 55 21 129 27 164 17 106 14 502 -6 701 -3 31 -20 34 -65 11z"></path></g></g><g id="l39wMYoBff7kK6UjfhH3DUs" fill="rgb(249,231,182)" style="transform: none;"><g style="transform: none;"><path id="p1BKmL43wB" d="M4308 7883 c-23 -35 -53 -99 -121 -258 -40 -95 -94 -290 -112 -407 -21 -133 -16 -444 9 -553 50 -222 130 -413 241 -579 36 -54 64 -100 63 -101 -10 -8 -191 -24 -217 -19 -31 7 -31 6 -21 -22 49 -127 200 -315 345 -428 234 -183 459 -279 800 -341 165 -30 289 -67 413 -122 67 -31 133 -64 146 -74 13 -11 28 -19 33 -19 22 0 145 -95 253 -196 155 -144 211 -177 362 -218 91 -25 109 -27 295 -25 283 3 493 23 633 63 47 13 115 31 153 41 37 9 67 21 67 27 0 5 -14 17 -32 26 -56 30 -104 80 -138 143 -30 58 -32 66 -28 138 3 42 15 101 27 131 32 85 109 193 181 256 60 52 190 123 254 140 15 3 26 12 26 19 0 50 -102 258 -165 336 -30 37 -93 96 -140 131 -137 103 -244 149 -434 187 -178 36 -506 26 -951 -30 -97 -12 -260 -22 -396 -26 -198 -5 -243 -3 -310 12 -97 21 -200 61 -217 84 -11 16 -68 30 -187 47 -51 7 -188 68 -252 112 -24 16 -87 72 -141 122 -96 91 -127 134 -170 239 -10 24 -26 63 -37 86 -46 100 -51 328 -11 452 44 134 99 222 236 374 72 80 81 114 49 177 -17 34 -24 37 -188 74 -155 35 -169 37 -232 38 -60 0 -62 -1 -86 -37z"></path><path id="p19INrER9c" d="M6010 6514 l0 -35 43 3 c36 3 43 7 45 27 4 29 -12 41 -55 41 -31 0 -33 -2 -33 -36z"></path><path id="pbSjySsIT" d="M6280 6489 c0 -19 -28 -39 -54 -39 -21 0 -26 -5 -26 -26 0 -26 1 -26 65 -22 72 4 74 5 77 37 2 18 -5 28 -29 42 -18 10 -33 14 -33 8z"></path><path id="p1AKUhI2Vd" d="M5435 4084 c-30 -33 -32 -63 -4 -98 24 -30 64 -34 108 -11 31 15 41 33 41 70 0 63 -99 89 -145 39z"></path></g></g><g id="lkDvj82vZsIbvrzceJWCZW" fill="rgb(245,218,156)" style="transform: none;"><g style="transform: none;"><path id="pvAyXoVCj" d="M4342 7919 c-13 -5 -20 -13 -17 -19 8 -13 81 -13 107 1 15 8 22 8 28 -1 4 -7 16 -9 29 -5 12 4 21 2 21 -4 0 -6 9 -11 20 -11 23 0 27 15 7 23 -8 3 -40 8 -73 12 -32 3 -68 8 -79 10 -11 2 -30 -1 -43 -6z"></path><path id="pTIRj58yV" d="M4570 7880 c0 -5 7 -10 15 -10 8 0 15 5 15 10 0 6 -7 10 -15 10 -8 0 -15 -4 -15 -10z"></path><path id="p18OitS3UP" d="M4620 7870 c0 -5 7 -10 15 -10 8 0 15 5 15 10 0 6 -7 10 -15 10 -8 0 -15 -4 -15 -10z"></path><path id="p1F2kPH66R" d="M4670 7860 c0 -5 7 -10 15 -10 8 0 15 5 15 10 0 6 -7 10 -15 10 -8 0 -15 -4 -15 -10z"></path><path id="p11Crwbqbr" d="M4737 7844 c3 -8 11 -14 18 -14 8 0 16 -10 20 -22 3 -13 11 -33 17 -45 12 -24 18 -15 -127 -183 -70 -81 -133 -191 -166 -291 -42 -129 -36 -411 11 -514 11 -23 27 -62 37 -86 43 -105 74 -148 170 -239 54 -50 117 -106 141 -122 64 -44 201 -105 252 -112 108 -16 177 -29 197 -39 35 -16 38 -3 9 40 -14 20 -26 46 -26 56 0 28 36 73 67 85 16 6 148 13 303 16 317 6 672 27 723 42 9 3 17 10 17 15 0 10 -66 42 -74 37 -2 -2 -12 4 -22 13 -45 38 -268 78 -529 94 -359 23 -545 82 -680 219 -39 39 -83 94 -98 122 -69 131 -87 334 -43 506 22 87 48 147 111 253 13 22 24 45 24 52 1 12 -122 62 -229 93 -36 10 -79 23 -97 28 -26 8 -31 8 -26 -4z"></path><path id="pGNa3O1S7" d="M7010 6170 c0 -13 20 -13 40 0 12 8 9 10 -12 10 -16 0 -28 -4 -28 -10z"></path><path id="p2Pb6wsRb" d="M5366 6155 c-5 -15 88 -50 110 -41 7 3 14 0 17 -7 3 -9 9 -9 28 0 21 10 22 12 4 13 -11 0 -50 11 -87 24 -51 18 -68 21 -72 11z"></path><path id="pSSiPojZn" d="M7130 6160 c0 -5 7 -10 15 -10 8 0 15 5 15 10 0 6 -7 10 -15 10 -8 0 -15 -4 -15 -10z"></path><path id="p5CXoMO0G" d="M6480 6156 c0 -2 11 -6 25 -8 14 -3 25 -1 25 3 0 5 -11 9 -25 9 -14 0 -25 -2 -25 -4z"></path><path id="pWBbuNvZq" d="M7240 6140 c0 -5 7 -10 15 -10 8 0 15 5 15 10 0 6 -7 10 -15 10 -8 0 -15 -4 -15 -10z"></path><path id="plWikXuho" d="M6291 6136 c12 -10 59 -15 59 -6 0 5 -14 10 -32 10 -17 0 -29 -2 -27 -4z"></path><path id="pEDYA3V51" d="M7280 6130 c0 -5 7 -10 15 -10 8 0 15 5 15 10 0 6 -7 10 -15 10 -8 0 -15 -4 -15 -10z"></path><path id="pJaat5mTr" d="M7466 6065 c-3 -9 0 -15 9 -15 16 0 20 16 6 24 -5 3 -11 -1 -15 -9z"></path><path id="pS6sH3lxi" d="M4378 5982 c-19 -4 -24 -17 -10 -26 11 -7 35 10 31 21 -2 5 -12 7 -21 5z"></path><path id="peBEr9KIo" d="M8267 5243 c4 -16 7 -68 7 -118 1 -116 -21 -161 -91 -196 -44 -21 -61 -23 -196 -24 -166 0 -170 -5 -34 -50 72 -24 91 -26 157 -20 135 12 215 68 235 162 9 43 -11 134 -46 211 -29 65 -44 81 -32 35z"></path><path id="pGW982kiB" d="M5473 4108 c-43 -11 -46 -40 -3 -32 30 7 89 -11 102 -30 5 -7 8 -4 8 6 0 19 -33 54 -58 60 -10 3 -32 1 -49 -4z"></path><path id="p1GUy6KsNc" d="M5417 4063 c-14 -13 -7 -51 14 -77 16 -20 28 -26 57 -24 l37 1 -37 4 c-46 5 -69 34 -61 74 5 29 2 35 -10 22z"></path><path id="pF09jGOhc" d="M5570 4022 c0 -7 -8 -12 -17 -12 -15 0 -16 -2 -3 -10 10 -6 17 -4 23 6 5 9 6 18 3 21 -3 4 -6 1 -6 -5z"></path></g></g></svg>